<?xml version="1.0" encoding="iso-8859-1"?>
<!-- Generator: Adobe Illustrator 19.0.0, SVG Export Plug-In . SVG Version: 6.00 Build 0)  -->
<svg version="1.1" id="Layer_1" xmlns="http://www.w3.org/2000/svg" xmlns:xlink="http://www.w3.org/1999/xlink" x="0px" y="0px"
	 viewBox="0 0 512 512" style="enable-background:new 0 0 512 512;" xml:space="preserve">
<circle style="fill:#1FDBE2;" cx="256" cy="256" r="256"/>
<path style="fill:#22BFBF;" d="M266.342,511.774c118.182-4.698,215.747-89.502,239.899-201.616L353.437,157.355l-35.697,67.179
	l-91.845-91.845l-78.788,13.843l-44.535,7.578l171.62,171.62l-163.507,23.1l23.719,23.719l-4.577,2.712L266.342,511.774z"/>
<rect x="110.692" y="149.89" style="fill:#B97850;" width="107.089" height="149.935"/>
<rect x="163.478" y="149.89" style="fill:#935635;" width="54.298" height="149.935"/>
<g>
	<rect x="102.572" y="132.691" style="fill:#B54324;" width="123.328" height="21.42"/>
	<rect x="163.478" y="132.691" style="fill:#B54324;" width="62.405" height="21.42"/>
</g>
<rect x="132.103" y="171.305" style="fill:#31BAFD;" width="64.25" height="110.813"/>
<rect x="163.478" y="171.305" style="fill:#2B9ED8;" width="32.875" height="110.813"/>
<g>
	<rect x="303.459" y="171.305" style="fill:#B54324;" width="42.839" height="85.676"/>
	<rect x="323.801" y="171.305" style="fill:#B54324;" width="22.497" height="85.676"/>
</g>
<g>
	<rect x="296.322" y="157.358" style="fill:#FF7F4F;" width="57.113" height="21.42"/>
	<rect x="323.801" y="157.358" style="fill:#FF7F4F;" width="29.634" height="21.42"/>
</g>
<rect x="110.692" y="241.726" style="fill:#D83E20;" width="257.034" height="107.089"/>
<rect x="239.33" y="241.726" style="fill:#C1321F;" width="128.379" height="107.089"/>
<g>
	<circle style="fill:#FFC61B;" cx="153.341" cy="353.366" r="32.128"/>
	<circle style="fill:#FFC61B;" cx="239.192" cy="353.366" r="32.128"/>
	<circle style="fill:#FFC61B;" cx="320.974" cy="353.366" r="32.128"/>
</g>
<g>
	<path style="fill:#F4A200;" d="M153.34,321.245c17.744,0,32.128,14.384,32.128,32.128c0,17.744-14.384,32.128-32.128,32.128
		V321.245z"/>
	<path style="fill:#F4A200;" d="M239.201,321.245c17.744,0,32.128,14.384,32.128,32.128c0,17.744-14.384,32.128-32.128,32.128
		V321.245z"/>
	<path style="fill:#F4A200;" d="M320.972,321.245c17.744,0,32.128,14.384,32.128,32.128c0,17.744-14.384,32.128-32.128,32.128
		V321.245z"/>
</g>
<rect x="147.877" y="347.367" style="fill:#FF5419;" width="178.562" height="12.067"/>
<polygon style="fill:#324A5E;" points="367.716,241.733 443.906,348.829 367.716,348.829 "/>
<g>
</g>
<g>
</g>
<g>
</g>
<g>
</g>
<g>
</g>
<g>
</g>
<g>
</g>
<g>
</g>
<g>
</g>
<g>
</g>
<g>
</g>
<g>
</g>
<g>
</g>
<g>
</g>
<g>
</g>
</svg>
